<svg xmlns="http://www.w3.org/2000/svg" viewBox="0 0 24 24" fill="none" stroke="currentColor" stroke-width="1.8" stroke-linecap="round" stroke-linejoin="round">
  <path d="M12 15.5A3.5 3.5 0 1 0 12 8.5a3.5 3.5 0 0 0 0 7z" />
  <path d="M19.4 15a1.65 1.65 0 0 0 .33 1.82l.06.06a2 2 0 0 1-2.83 2.83l-.06-.06a1.65 1.65 0 0 0-1.82-.33 1.65 1.65 0 0 0-1 1.51V21a2 2 0 0 1-4 0v-.09a1.65 1.65 0 0 0-1-1.51 1.65 1.65 0 0 0-1.82.33l-.06.06A2 2 0 1 1 2.3 16.9l.06-.06a1.65 1.65 0 0 0 .33-1.82 1.65 1.65 0 0 0-1.51-1H3a2 2 0 0 1 0-4h.09c.7 0 1.31-.4 1.51-1a1.65 1.65 0 0 0-.33-1.82l-.06-.06a2 2 0 1 1 2.83-2.83l.06.06c.5.5 1.28.6 1.82.33.6-.23 1.29-.27 1.9-.11H11a2 2 0 0 1 4 0h.09c.61-.16 1.3-.12 1.9.11.54.27 1.32.17 1.82-.33l.06-.06A2 2 0 1 1 21.4 6.1l-.06.06c-.27.54-.17 1.32.33 1.82.23.6.27 1.29.11 1.9V11a2 2 0 0 1 0 4h-.09c-.7 0-1.31.4-1.51 1z" />
</svg>